<svg width="14" height="18" viewBox="0 0 14 18" fill="none" xmlns="http://www.w3.org/2000/svg">
<path id="Vector" opacity="0.5" d="M6.91636 0.410156C4.6206 0.410156 2.75286 2.2779 2.75286 4.57365V6.23905H1.92016C1.00169 6.23905 0.254761 6.98598 0.254761 7.90445V15.3987C0.254761 16.3172 1.00169 17.0641 1.92016 17.0641H11.9126C12.831 17.0641 13.578 16.3172 13.578 15.3987V7.90445C13.578 6.98598 12.831 6.23905 11.9126 6.23905H11.0799V4.57365C11.0799 2.2779 9.21211 0.410156 6.91636 0.410156ZM4.41826 4.57365C4.41826 3.19637 5.53907 2.07556 6.91636 2.07556C8.29364 2.07556 9.41446 3.19637 9.41446 4.57365V6.23905H4.41826V4.57365ZM11.9142 15.3987H7.74906V13.5019C8.24451 13.2129 8.58176 12.6817 8.58176 12.068C8.58176 11.1495 7.83483 10.4026 6.91636 10.4026C5.99789 10.4026 5.25096 11.1495 5.25096 12.068C5.25096 12.6808 5.5882 13.2129 6.08366 13.5019V15.3987H1.92016V7.90445H11.9126L11.9142 15.3987Z" fill="#03014C"/>
</svg>
