<svg width="20" height="15" viewBox="0 0 20 15" fill="none" xmlns="http://www.w3.org/2000/svg">
<g id="Group" opacity="0.4">
<path id="Vector" d="M13.1302 7.40241C13.1302 8.23058 12.8012 9.02483 12.2156 9.61044C11.63 10.196 10.8358 10.525 10.0076 10.525C9.17942 10.525 8.38516 10.196 7.79956 9.61044C7.21395 9.02483 6.88496 8.23058 6.88496 7.40241C6.88496 6.57424 7.21395 5.77999 7.79956 5.19438C8.38516 4.60877 9.17942 4.27979 10.0076 4.27979C10.8358 4.27979 11.63 4.60877 12.2156 5.19438C12.8012 5.77999 13.1302 6.57424 13.1302 7.40241Z" fill="#03014C"/>
<path id="Vector_2" fill-rule="evenodd" clip-rule="evenodd" d="M0.0152283 7.40249C0.0152283 7.40249 3.76238 0.532715 10.0076 0.532715C16.2529 0.532715 20 7.40249 20 7.40249C20 7.40249 16.2529 14.2723 10.0076 14.2723C3.76238 14.2723 0.0152283 7.40249 0.0152283 7.40249ZM10.0076 11.7742C11.1671 11.7742 12.279 11.3136 13.0989 10.4937C13.9187 9.67388 14.3793 8.56193 14.3793 7.40249C14.3793 6.24305 13.9187 5.13109 13.0989 4.31125C12.279 3.4914 11.1671 3.03081 10.0076 3.03081C8.84818 3.03081 7.73623 3.4914 6.91638 4.31125C6.09654 5.13109 5.63595 6.24305 5.63595 7.40249C5.63595 8.56193 6.09654 9.67388 6.91638 10.4937C7.73623 11.3136 8.84818 11.7742 10.0076 11.7742Z" fill="#03014C"/>
</g>
</svg>
