<svg width="16" height="17" viewBox="0 0 16 17" fill="none" xmlns="http://www.w3.org/2000/svg">
<path id="Vector" opacity="0.5" d="M7.91635 0.977539C5.6206 0.977539 3.75286 2.84528 3.75286 5.14104C3.75286 7.43679 5.6206 9.30453 7.91635 9.30453C10.2121 9.30453 12.0799 7.43679 12.0799 5.14104C12.0799 2.84528 10.2121 0.977539 7.91635 0.977539ZM7.91635 7.63914C6.53907 7.63914 5.41826 6.51832 5.41826 5.14104C5.41826 3.76375 6.53907 2.64294 7.91635 2.64294C9.29364 2.64294 10.4145 3.76375 10.4145 5.14104C10.4145 6.51832 9.29364 7.63914 7.91635 7.63914ZM15.4107 16.7988V15.9661C15.4107 12.7527 12.7951 10.1372 9.58175 10.1372H6.25096C3.03673 10.1372 0.422058 12.7527 0.422058 15.9661V16.7988H2.08746V15.9661C2.08746 13.6704 3.9552 11.8026 6.25096 11.8026H9.58175C11.8775 11.8026 13.7453 13.6704 13.7453 15.9661V16.7988H15.4107Z" fill="#03014C"/>
</svg>
